<svg xmlns="http://www.w3.org/2000/svg" xmlns:xlink="http://www.w3.org/1999/xlink" viewBox="0 0 512 512"><defs><style>.cls-1{fill:url(#linear-gradient);}.cls-2{opacity:0.58;}.cls-3{fill:#fff;}</style><linearGradient id="linear-gradient" x1="17.09" y1="338.98" x2="413.28" y2="202.53" gradientUnits="userSpaceOnUse"><stop offset="0" stop-color="#3c80e4"/><stop offset="1" stop-color="#229df0"/></linearGradient></defs><title>download-manager-logo</title><g id="Layer_2" data-name="Layer 2"><g id="Layer_1-2" data-name="Layer 1"><g id="download-manager-logo"><g id="Rectangle"><path class="cls-1" d="M466.89,512H45.11A45.1,45.1,0,0,1,0,466.89V50A50,50,0,0,1,50,0H466.89A45.1,45.1,0,0,1,512,45.11V466.89A45.1,45.1,0,0,1,466.89,512Z"/></g><g id="circle" class="cls-2"><path class="cls-3" d="M284,315.09a30.58,30.58,0,0,1-43.27,1.83l-64.78-59.74a106.21,106.21,0,1,0,169.87-9.56Z"/></g><path id="arrow" class="cls-3" d="M261.5,287.82a22.74,22.74,0,0,1-15.9-6.5L109.91,149.73a24.52,24.52,0,0,1-1.31-33.38l6.71-7.65a22.73,22.73,0,0,1,33.12-1.38L259.52,215.05,361.62,97.83a22.75,22.75,0,0,1,33.12-1.49l7.3,7a24.52,24.52,0,0,1,1.41,33.38L278.77,279.89A22.94,22.94,0,0,1,261.5,287.82Z"/></g></g></g></svg>